<svg xmlns="http://www.w3.org/2000/svg" viewBox="0 0 1200 600" width="1200" height="600" font-family="&#39;Geist&#39;, &#39;Inter&#39;, system-ui, sans-serif">

  
  <rect width="1200" height="600" fill="#0b0d10"></rect>

  
  <rect x="60" y="180" width="240" height="120" rx="10" fill="none" stroke="#e6eaf0" stroke-width="1.5" stroke-dasharray="6 4"></rect>
  <text x="180" y="235" text-anchor="middle" font-size="18" font-weight="600" fill="#e6eaf0">your code</text>
  <text x="180" y="258" text-anchor="middle" font-size="12" fill="#6b7380">LangGraph agent</text>

  
  
  <line x1="300" y1="240" x2="390" y2="240" stroke="#6b7380" stroke-width="1.5" stroke-linecap="round"></line>
  
  <polygon points="390,240 381,235 381,245" fill="#6b7380"></polygon>

  
  <rect x="390" y="150" width="260" height="180" rx="10" fill="#111418" stroke="#7cffb0" stroke-width="1.5"></rect>
  <text x="520" y="208" text-anchor="middle" font-size="15" font-weight="600" fill="#e6eaf0">@graphos-io/sdk</text>
  <text x="520" y="228" text-anchor="middle" font-size="12" fill="#7cffb0" font-family="&#39;Geist Mono&#39;, &#39;Courier New&#39;, monospace">GraphOS.wrap()</text>

  
  <line x1="520" y1="330" x2="520" y2="395" stroke="#6b7380" stroke-width="1.5" stroke-linecap="round"></line>
  <polygon points="520,395 515,386 525,386" fill="#6b7380"></polygon>
  
  <text x="533" y="368" font-size="11" fill="#6b7380" font-family="&#39;Geist Mono&#39;, &#39;Courier New&#39;, monospace">stream()</text>

  
  <rect x="415" y="395" width="210" height="60" rx="8" fill="#0d1014" stroke="#1e2530" stroke-width="1.5"></rect>
  <text x="520" y="422" text-anchor="middle" font-size="12" font-weight="500" fill="#6b7380">compiled LangGraph</text>
  <text x="520" y="440" text-anchor="middle" font-size="10" fill="#3a4050" font-family="&#39;Geist Mono&#39;, &#39;Courier New&#39;, monospace">.langgraph/</text>

  
  <line x1="650" y1="240" x2="760" y2="240" stroke="#7cffb0" stroke-width="1.5" stroke-linecap="round" stroke-dasharray="8 4"></line>
  <polygon points="760,240 751,235 751,245" fill="#7cffb0"></polygon>
  
  <text x="703" y="228" text-anchor="middle" font-size="11" fill="#7cffb0" font-family="&#39;Geist Mono&#39;, &#39;Courier New&#39;, monospace">WebSocket</text>
  <text x="703" y="258" text-anchor="middle" font-size="10" fill="#6b7380" font-family="&#39;Geist Mono&#39;, &#39;Courier New&#39;, monospace">onTrace</text>

  
  <rect x="760" y="150" width="280" height="180" rx="10" fill="#111418" stroke="#1e2530" stroke-width="1.5"></rect>
  <text x="900" y="208" text-anchor="middle" font-size="15" font-weight="600" fill="#e6eaf0">@graphos-io/dashboard</text>
  <text x="900" y="231" text-anchor="middle" font-size="11" fill="#6b7380">live UI · time-travel · SQLite</text>

  
  <line x1="900" y1="330" x2="900" y2="395" stroke="#6b7380" stroke-width="1.5" stroke-linecap="round"></line>
  <polygon points="900,395 895,386 905,386" fill="#6b7380"></polygon>

  
  
  <rect x="815" y="400" width="170" height="65" rx="6" fill="#0d1014" stroke="#1e2530" stroke-width="1.5"></rect>
  
  <ellipse cx="900" cy="402" rx="85" ry="14" fill="#111418" stroke="#1e2530" stroke-width="1.5"></ellipse>
  
  <text x="900" y="432" text-anchor="middle" font-size="11" fill="#6b7380" font-family="&#39;Geist Mono&#39;, &#39;Courier New&#39;, monospace">~/.graphos/</text>
  <text x="900" y="450" text-anchor="middle" font-size="11" fill="#6b7380" font-family="&#39;Geist Mono&#39;, &#39;Courier New&#39;, monospace">traces.db</text>
  
  <ellipse cx="900" cy="465" rx="85" ry="14" fill="#0d1014" stroke="#1e2530" stroke-width="1.5"></ellipse>

  
  <text x="600" y="548" text-anchor="middle" font-size="13" fill="#3a4050">
    All localhost. Your traces never leave your machine.
  </text>
  
  <line x1="200" y1="536" x2="1000" y2="536" stroke="#1e2530" stroke-width="1"></line>

</svg>